<svg xmlns="http://www.w3.org/2000/svg" fill="none" viewBox="0 0 256 256"><defs><linearGradient x1="0" y1="0" x2="1" y2="1" id="prefix__b"><stop offset="0%" stop-color="#46EEA8"/><stop offset="100%" stop-color="#00C774"/></linearGradient><clipPath id="prefix__a"><rect width="256" height="256" rx="0"/></clipPath></defs><g style="mix-blend-mode:passthrough" clip-path="url(#prefix__a)"><path d="M193.933 165.157l42.448 42.615c1.035 1.039 1.035 4.157-2.071 7.275l-10.353 10.394c-1.035 2.079-4.141 2.079-6.212 0l-42.448-42.614c-10.353 4.157-22.777 2.079-32.095-7.276-9.317-10.394-11.388-23.905-6.211-35.338L157.697 161l14.494-14.551-19.671-19.748c11.389-5.197 24.848-3.118 34.166 6.236 9.318 8.315 11.388 21.827 7.247 32.22zm-60.048 30.205H20v-20.787C20 151.709 57.271 133 102.825 133c5.177 0 10.353 0 14.495 1.039-3.106 6.237-4.142 12.473-4.142 19.748 0 16.63 8.283 32.221 20.707 41.575zM103.5 29c4.569 0 8.273 3.716 8.273 8.3 0 3.071-1.655 5.769-4.137 7.18v5.27h4.137c15.991 0 28.954 13.006 28.954 29.05h4.137A4.143 4.143 0 01149 82.95V95.4a4.143 4.143 0 01-4.136 4.15h-4.137v4.15c0 4.584-3.704 8.3-8.272 8.3h-57.91c-4.568 0-8.272-3.716-8.272-8.3v-4.15h-4.137A4.143 4.143 0 0158 95.4V82.95a4.143 4.143 0 014.136-4.15h4.137c0-16.044 12.963-29.05 28.954-29.05h4.137v-5.27c-2.482-1.411-4.137-4.109-4.137-7.18 0-4.584 3.704-8.3 8.273-8.3zM84.886 74.65c-5.71 0-10.34 4.645-10.34 10.375S79.175 95.4 84.886 95.4c5.712 0 10.341-4.645 10.341-10.375s-4.63-10.375-10.34-10.375zm37.228 0c-5.712 0-10.341 4.645-10.341 10.375s4.63 10.375 10.341 10.375c5.711 0 10.341-4.645 10.341-10.375s-4.63-10.375-10.341-10.375z" fill-rule="evenodd" fill="url(#prefix__b)"/></g></svg>
